<?xml version="1.0" standalone="no"?>

<svg version="1.0" xmlns="http://www.w3.org/2000/svg"
 width="1116.000000pt" height="371.000000pt" viewBox="0 0 1116.000000 371.000000"
 preserveAspectRatio="xMidYMid meet">
<metadata>
Created by potrace 1.16, written by Peter Selinger 2001-2019
</metadata>
<g transform="translate(0.000000,371.000000) scale(0.100000,-0.100000)"
fill="#000000" stroke="none">
<path d="M2080 3561 c-140 -45 -273 -147 -319 -245 -88 -191 -12 -459 188
-656 86 -86 184 -160 211 -160 52 0 250 177 326 292 25 37 59 105 77 150 28
74 31 95 31 193 1 105 -1 114 -31 176 -54 110 -152 187 -315 249 -64 24 -96
24 -168 1z m151 -156 c146 -75 223 -211 198 -357 -20 -124 -112 -278 -219
-368 l-50 -42 -66 64 c-73 69 -141 166 -175 249 -32 77 -33 215 -2 282 28 60
106 137 174 171 65 32 77 32 140 1z"/>
<path d="M2120 3212 c-55 -55 -62 -159 -18 -247 31 -61 58 -96 70 -89 5 4 25
38 44 77 27 56 34 84 34 130 0 63 -9 87 -48 130 -32 34 -47 34 -82 -1z"/>
<path d="M1143 3171 c-135 -37 -203 -81 -242 -160 -54 -106 -73 -190 -69 -298
2 -83 7 -107 31 -155 97 -198 377 -311 691 -279 172 17 158 5 177 161 13 113
14 147 3 230 -16 126 -28 169 -70 257 -46 97 -127 184 -211 225 -85 41 -199
48 -310 19z m232 -180 c66 -31 131 -95 166 -162 48 -96 61 -150 66 -285 l6
-131 -24 -6 c-42 -12 -172 -7 -243 8 -255 54 -395 236 -342 444 27 105 33 113
106 138 96 33 188 31 265 -6z"/>
<path d="M1175 2820 c-13 -40 5 -109 37 -146 41 -46 118 -84 184 -91 l54 -6
-26 76 c-45 135 -88 178 -183 185 -54 4 -60 2 -66 -18z"/>
<path d="M2930 3174 c-183 -49 -327 -273 -346 -539 -5 -66 17 -320 29 -331 12
-12 166 -27 277 -26 159 0 252 21 362 79 157 82 238 196 246 346 5 98 -15 191
-59 280 -39 80 -61 102 -133 139 -122 62 -265 82 -376 52z m303 -182 c70 -31
92 -83 92 -217 0 -89 -3 -105 -27 -151 -54 -102 -173 -178 -326 -209 -84 -17
-232 -18 -249 -2 -16 16 -8 228 11 292 47 157 127 256 244 300 55 22 194 15
255 -13z"/>
<path d="M3030 2829 c-62 -25 -121 -113 -138 -206 l-9 -51 36 5 c68 11 143 45
182 84 40 40 53 79 47 140 -3 33 -5 34 -48 36 -25 1 -56 -2 -70 -8z"/>
<path d="M1870 2536 c0 -19 -3 -42 -7 -52 -5 -14 -3 -16 13 -10 39 16 48 17
25 3 -14 -8 -28 -23 -32 -33 -8 -20 -12 -154 -5 -154 2 0 27 16 55 35 33 21
75 39 113 46 l62 12 -53 49 c-30 27 -67 52 -83 55 -21 4 -26 8 -16 14 10 6 4
16 -22 38 -19 17 -38 30 -42 31 -5 0 -8 -15 -8 -34z"/>
<path d="M2431 2528 c-20 -24 -22 -31 -10 -39 10 -6 3 -9 -21 -9 -28 0 -47
-10 -88 -46 -28 -25 -52 -50 -52 -55 0 -5 15 -9 33 -9 37 0 107 -30 154 -66
17 -13 34 -24 38 -24 3 0 3 35 -1 78 -5 58 -12 83 -28 100 -17 19 -17 22 -3
16 15 -5 17 0 17 40 0 25 -3 46 -7 45 -5 0 -19 -14 -32 -31z"/>
<path d="M7125 2521 c-52 -24 -99 -74 -126 -136 -36 -80 -36 -174 1 -455 18
-135 33 -295 34 -357 1 -99 -1 -115 -20 -140 -68 -91 -171 21 -334 360 -54
112 -188 437 -223 540 -6 15 -21 17 -127 17 -66 0 -120 -4 -120 -8 0 -5 17
-14 38 -20 25 -8 43 -21 50 -37 9 -19 12 -145 12 -435 0 -397 -1 -411 -20
-430 -11 -11 -31 -20 -45 -20 -14 0 -25 -4 -25 -10 0 -6 43 -10 110 -10 67 0
110 4 110 10 0 6 -11 10 -25 10 -14 0 -34 9 -45 20 -19 19 -20 33 -19 398 0
225 4 369 9 357 5 -11 37 -92 71 -180 76 -197 129 -304 208 -421 65 -98 124
-158 177 -180 52 -22 166 -18 197 6 68 53 80 230 37 525 -13 88 -24 207 -25
265 0 90 3 112 23 152 42 85 122 117 214 86 50 -17 83 -10 93 22 8 27 -18 68
-51 80 -42 16 -135 11 -179 -9z"/>
<path d="M9432 2350 c-188 -39 -298 -178 -262 -330 25 -103 97 -147 347 -211
171 -44 233 -73 264 -122 20 -35 25 -100 9 -141 -16 -44 -78 -103 -132 -126
-71 -30 -180 -30 -263 0 -82 31 -154 104 -179 183 -16 53 -20 57 -48 57 -23 0
-28 -4 -24 -17 2 -10 7 -45 10 -78 13 -125 16 -135 39 -135 12 0 58 -12 102
-27 73 -25 93 -27 230 -27 132 0 157 3 208 23 156 61 235 192 198 329 -26 94
-103 144 -291 187 -202 47 -244 62 -290 103 -35 31 -43 45 -47 84 -7 64 1 92
42 137 56 62 122 86 235 85 79 0 103 -4 143 -23 62 -30 104 -82 125 -153 16
-53 19 -58 46 -58 l29 0 -7 68 c-13 136 -3 123 -129 162 -91 28 -131 35 -212
36 -55 2 -119 -1 -143 -6z"/>
<path d="M4456 2243 c-9 -60 -16 -111 -16 -115 0 -5 15 -8 33 -8 30 0 33 4 50
56 36 114 67 134 206 134 79 0 92 -2 101 -19 6 -13 10 -167 10 -431 l0 -411
-25 -24 c-13 -14 -33 -25 -45 -25 -11 0 -20 -4 -20 -10 0 -6 62 -10 165 -10
152 0 206 9 136 23 -63 13 -61 -4 -61 461 0 315 3 425 12 434 17 17 170 16
212 -2 38 -16 70 -62 88 -129 11 -44 14 -47 45 -47 18 0 33 3 33 8 0 4 -7 55
-16 115 l-17 107 -437 0 -437 0 -17 -107z"/>
<path d="M5635 2338 c-3 -7 -68 -211 -145 -452 -77 -241 -147 -447 -156 -457
-9 -10 -29 -21 -45 -24 -64 -14 -36 -25 65 -25 64 0 106 4 106 10 0 6 -8 10
-18 10 -10 0 -26 6 -36 13 -16 12 -14 22 29 155 l46 142 161 -2 160 -3 45
-125 c49 -139 49 -165 3 -175 -72 -16 -20 -25 140 -25 94 0 170 4 170 8 0 4
-20 13 -44 20 -28 7 -49 21 -61 39 -11 15 -92 224 -181 463 l-162 435 -36 3
c-23 2 -38 -2 -41 -10z m75 -367 c38 -112 70 -205 70 -207 0 -2 -63 -4 -140
-4 -77 0 -140 3 -140 6 0 14 132 415 136 412 2 -2 35 -95 74 -207z"/>
<path d="M7210 2340 c0 -5 17 -14 38 -20 22 -5 46 -18 55 -28 9 -9 95 -218
191 -462 171 -437 175 -445 202 -445 28 0 28 0 136 350 59 193 109 353 111
357 1 4 65 -155 142 -353 136 -349 141 -359 167 -359 24 0 29 6 42 48 41 139
270 850 277 864 5 10 27 22 49 28 68 18 45 30 -60 30 -101 0 -125 -9 -70 -29
17 -5 30 -16 30 -23 0 -18 -220 -691 -229 -701 -11 -11 -265 679 -257 698 3 9
19 21 36 26 61 22 26 29 -140 29 -101 0 -170 -4 -170 -10 0 -5 15 -12 34 -15
43 -9 79 -46 104 -110 l20 -50 -91 -287 c-50 -159 -94 -285 -98 -280 -19 20
-250 666 -247 689 2 21 11 30 36 37 66 19 27 26 -138 26 -102 0 -170 -4 -170
-10z"/>
<path d="M8750 2342 c0 -5 18 -14 40 -21 60 -18 62 -28 58 -482 -3 -434 -2
-423 -64 -435 -77 -14 -24 -24 131 -24 103 0 165 4 165 10 0 6 -9 10 -20 10
-12 0 -32 11 -45 25 l-25 24 0 413 c0 454 -1 450 60 463 71 16 20 25 -135 25
-91 0 -165 -4 -165 -8z"/>
<path d="M10000 2341 c0 -5 13 -12 30 -16 61 -13 60 -9 60 -466 l0 -418 -26
-20 c-15 -12 -35 -21 -45 -21 -11 0 -19 -4 -19 -10 0 -6 62 -10 165 -10 103 0
165 4 165 10 0 6 -8 10 -19 10 -10 0 -30 9 -45 21 l-26 20 0 195 0 194 215 0
215 0 0 -190 c0 -189 0 -191 -25 -215 -13 -14 -36 -25 -50 -25 -14 0 -25 -4
-25 -10 0 -6 63 -10 170 -10 167 0 206 8 133 26 -24 6 -42 18 -50 34 -17 34
-19 807 -1 845 7 16 25 29 50 37 21 6 38 15 38 20 0 4 -76 8 -170 8 -166 0
-209 -9 -133 -27 58 -14 63 -31 63 -250 l0 -193 -215 0 -215 0 0 203 c0 223 1
227 63 242 64 16 16 25 -138 25 -94 0 -165 -4 -165 -9z"/>
<path d="M767 2279 c-85 -20 -158 -74 -223 -166 -60 -83 -103 -192 -104 -261
0 -116 107 -306 212 -377 81 -53 170 -71 279 -58 198 25 380 145 540 355 l59
77 -59 78 c-115 152 -200 227 -333 294 -122 62 -263 84 -371 58z m215 -164
c106 -22 219 -87 310 -176 43 -43 78 -82 78 -88 0 -20 -146 -156 -203 -190
-32 -18 -88 -45 -125 -58 -177 -65 -347 7 -433 183 l-32 65 24 51 c53 115 136
188 243 214 66 16 60 16 138 -1z"/>
<path d="M842 1923 c-18 -9 -42 -29 -53 -44 -20 -28 -20 -29 -2 -53 28 -39 85
-66 136 -66 57 0 142 31 185 67 l33 28 -48 31 c-26 17 -63 36 -82 42 -48 17
-130 14 -169 -5z"/>
<path d="M3355 2280 c-125 -26 -251 -93 -354 -186 -58 -53 -201 -226 -201
-243 0 -16 106 -148 170 -212 120 -120 236 -186 381 -215 215 -43 381 43 484
251 53 108 63 170 41 242 -49 156 -142 280 -250 333 -50 25 -78 31 -146 35
-47 2 -103 0 -125 -5z m200 -190 c77 -37 185 -177 185 -240 0 -32 -47 -117
-93 -167 -88 -96 -224 -128 -357 -83 -93 31 -195 98 -274 180 l-69 71 69 70
c180 183 381 246 539 169z"/>
<path d="M3295 1920 c-27 -11 -63 -31 -80 -45 l-30 -25 25 -20 c56 -44 113
-64 187 -64 65 -1 74 2 110 30 47 38 52 58 21 91 -50 55 -142 68 -233 33z"/>
<path d="M2289 2233 c-39 -24 -59 -65 -66 -136 -6 -73 5 -91 39 -60 64 56 97
155 66 196 -12 15 -15 15 -39 0z"/>
<path d="M1985 2211 c-11 -51 13 -112 64 -161 l46 -45 3 40 c6 68 -15 141 -49
170 -40 33 -56 32 -64 -4z"/>
<path d="M1560 2150 c-19 -19 -25 -43 -21 -84 2 -25 100 -130 106 -113 2 6 6
32 9 56 8 51 29 96 64 134 l26 27 -82 0 c-69 0 -85 -3 -102 -20z"/>
<path d="M2600 2156 c0 -4 16 -30 35 -59 21 -30 40 -76 47 -109 7 -32 15 -58
19 -58 18 0 99 113 99 138 0 21 2 24 10 12 8 -13 15 -10 42 17 17 18 30 35 27
38 -3 3 -27 8 -53 11 -43 6 -46 5 -40 -12 7 -18 6 -18 -12 -2 -19 17 -174 38
-174 24z"/>
<path d="M1793 2020 c-13 -5 -23 -15 -23 -23 0 -20 50 -63 89 -76 41 -13 128
-15 135 -2 9 14 -83 90 -123 101 -42 12 -49 12 -78 0z"/>
<path d="M2425 2018 c-26 -14 -95 -80 -95 -90 0 -4 30 -8 68 -8 49 0 76 5 99
20 36 21 57 55 49 76 -7 17 -91 19 -121 2z"/>
<path d="M2135 1980 c-11 -12 -31 -20 -52 -20 -30 0 -33 -2 -33 -32 0 -19 -9
-41 -22 -55 l-21 -23 20 -22 c12 -13 23 -36 25 -53 2 -25 8 -31 33 -33 16 -2
40 -12 53 -23 18 -14 29 -16 43 -8 10 5 19 14 19 19 0 6 16 10 35 10 32 0 35
2 35 30 0 17 9 39 20 50 11 11 20 26 20 33 0 8 -9 22 -20 32 -11 10 -20 31
-20 47 0 25 -3 28 -33 28 -20 0 -39 8 -50 20 -9 11 -21 20 -25 20 -5 0 -17 -9
-27 -20z"/>
<path d="M2330 1784 c0 -5 11 -20 23 -34 56 -64 128 -91 179 -67 25 11 27 14
15 36 -23 45 -60 64 -141 69 -42 2 -76 1 -76 -4z"/>
<path d="M1578 1723 c-38 -43 -48 -62 -49 -91 0 -34 -1 -35 -10 -13 -8 20 -12
21 -25 11 -8 -7 -24 -26 -35 -42 l-20 -28 51 0 c43 0 51 3 46 16 -4 11 1 10
20 -5 22 -17 41 -21 101 -21 l74 0 -25 33 c-33 43 -65 116 -66 147 -1 51 -14
49 -62 -7z"/>
<path d="M1829 1765 c-32 -17 -62 -62 -55 -81 4 -9 21 -14 54 -14 54 0 126 40
156 85 l16 25 -72 0 c-43 -1 -84 -7 -99 -15z"/>
<path d="M2676 1712 c-4 -29 -22 -81 -41 -117 l-34 -65 60 0 c60 0 112 18 123
42 3 7 3 3 0 -9 -5 -22 -2 -23 45 -23 28 0 51 4 51 8 0 9 -63 72 -72 72 -4 0
-9 -8 -11 -17 -3 -10 -5 -3 -6 15 -1 26 -13 46 -55 89 l-53 56 -7 -51z"/>
<path d="M2229 1668 c-6 -99 20 -175 67 -197 36 -16 49 -2 48 52 -1 49 -37
111 -84 146 l-30 22 -1 -23z"/>
<path d="M2048 1642 c-20 -20 -41 -47 -47 -59 -13 -25 -15 -102 -3 -120 12
-19 66 18 85 60 18 36 23 142 9 151 -5 3 -25 -12 -44 -32z"/>
<path d="M1285 1416 c-185 -37 -314 -110 -386 -221 -69 -104 -85 -210 -54
-343 18 -76 74 -200 102 -224 10 -10 64 -37 119 -60 84 -35 112 -42 185 -46
177 -9 295 58 387 220 83 144 110 293 93 501 -7 78 -16 146 -21 151 -28 28
-317 43 -425 22z m315 -126 c22 -14 20 -216 -4 -295 -47 -159 -137 -268 -249
-304 -85 -28 -264 -3 -305 43 -61 67 -70 257 -17 355 70 127 251 208 470 210
50 0 97 -4 105 -9z"/>
<path d="M1346 1104 c-103 -32 -166 -97 -166 -172 0 -67 6 -74 59 -66 25 4 58
13 74 21 39 19 85 87 104 152 8 31 18 62 20 69 7 16 -29 15 -91 -4z"/>
<path d="M2775 1424 c-16 -2 -60 -9 -97 -15 -66 -11 -67 -11 -73 -47 -50 -300
10 -571 161 -727 99 -103 236 -138 395 -101 158 36 232 90 277 199 64 154 70
301 17 412 -56 117 -188 213 -352 256 -75 19 -260 33 -328 23z m226 -143 c158
-41 257 -108 306 -209 24 -49 28 -69 28 -142 0 -185 -67 -252 -255 -254 -61 0
-86 5 -132 26 -149 69 -238 244 -238 470 0 75 4 100 16 112 23 23 179 22 275
-3z"/>
<path d="M2893 1104 c3 -11 9 -35 12 -54 23 -111 130 -204 212 -184 49 13 35
114 -24 176 -30 31 -100 63 -162 73 -39 6 -43 5 -38 -11z"/>
<path d="M1840 1349 c0 -65 2 -73 29 -100 47 -46 92 -35 165 39 l38 40 -43 7
c-57 9 -133 42 -155 66 -28 31 -34 23 -34 -52z"/>
<path d="M2429 1393 c-21 -24 -109 -63 -146 -63 -17 0 -34 -4 -37 -9 -4 -5 17
-30 45 -55 42 -38 58 -46 90 -46 45 0 79 27 79 63 0 12 3 46 6 75 6 43 4 52
-8 52 -9 0 -22 -7 -29 -17z"/>
<path d="M2073 1144 c-230 -176 -354 -402 -341 -621 11 -172 119 -287 361
-383 58 -23 60 -23 115 -6 176 55 317 164 362 281 63 166 0 398 -157 576 -87
99 -221 209 -252 209 -9 -1 -48 -26 -88 -56z m229 -209 c133 -164 173 -354
102 -485 -34 -63 -90 -114 -176 -160 l-65 -34 -66 32 c-158 78 -235 217 -207
374 20 111 80 218 180 320 l88 91 48 -39 c26 -21 69 -66 96 -99z"/>
<path d="M2131 774 c-17 -26 -36 -64 -41 -84 -25 -88 -1 -179 54 -210 27 -15
29 -14 61 24 60 68 54 173 -14 275 l-30 44 -30 -49z"/>
</g>
</svg>
